<?xml version="1.0" encoding="UTF-8"?>
<!-- Екран 2 — Реєстрація - /auth -->
<svg viewBox="0 0 390 844" width="100%" height="auto" role="img" aria-label="Екран 2">
            <rect x="0" y="0" width="390" height="844" rx="34" fill="#0b1220"/>
            <rect x="18" y="72" width="354" height="690" rx="26" fill="rgba(15,27,51,0.55)" stroke="rgba(255,255,255,0.14)"/>

            <text x="42" y="118" fill="rgba(255,255,255,0.92)" font-size="18" font-weight="700">Реєстрація</text>
            <text x="42" y="145" fill="rgba(255,255,255,0.64)" font-size="12">Увійдіть, щоб зберегти прогрес</text>
            <text x="42" y="163" fill="rgba(255,255,255,0.64)" font-size="12">і отримати трекінг</text>

            <rect x="42" y="188" width="306" height="152" rx="18" fill="rgba(16,31,58,0.55)" stroke="rgba(255,255,255,0.14)"/>
            <text x="60" y="218" fill="rgba(255,255,255,0.92)" font-size="13" font-weight="700">Навіщо потрібен вхід</text>
            <text x="60" y="246" fill="rgba(255,255,255,0.64)" font-size="12">- Зберегти документи й відповіді</text>
            <text x="60" y="268" fill="rgba(255,255,255,0.64)" font-size="12">- Отримувати нагадування про строки</text>
            <text x="60" y="290" fill="rgba(255,255,255,0.64)" font-size="12">- Трекінг доставки та статусів</text>

            <rect x="42" y="372" width="306" height="56" rx="16" fill="#3b82f6"/>
            <text x="195" y="407" fill="white" font-size="16" font-weight="700" text-anchor="middle">Продовжити з Google</text>

            <rect x="42" y="444" width="306" height="56" rx="16" fill="rgba(255,255,255,0.06)" stroke="rgba(255,255,255,0.14)"/>
            <text x="195" y="479" fill="rgba(255,255,255,0.90)" font-size="16" font-weight="700" text-anchor="middle">Продовжити з Дією</text>

            <rect x="42" y="528" width="306" height="44" rx="14" fill="rgba(255,255,255,0.06)" stroke="rgba(255,255,255,0.14)"/>
            <text x="195" y="556" fill="rgba(255,255,255,0.78)" font-size="12" font-weight="650" text-anchor="middle">Пропустити зараз</text>

            <text x="195" y="610" fill="rgba(255,255,255,0.46)" font-size="11" text-anchor="middle">Вхід потрібен лише для збереження прогресу</text>

            <g>
              <rect x="42" y="682" width="306" height="10" rx="6" fill="rgba(255,255,255,0.10)"/>
              <rect x="42" y="682" width="76" height="10" rx="6" fill="#3b82f6"/>
              <text x="42" y="712" fill="rgba(255,255,255,0.46)" font-size="11">Документи → Консультація → Підсумок</text>
            </g>
          </svg>
